# Blender v2.79 (sub 0) OBJ File: 'santoriniSecondFloor.blend'
# www.blender.org
mtllib santoriniSecondFloor.mtl
o Escalier_Cube.004
v -32.219299 8.000000 1.887100
v -32.219299 8.000000 -22.112900
v -32.219299 20.000000 -22.112900
v -24.219299 8.000000 1.887100
v -24.219299 11.000000 -10.112900
v -24.219299 8.000000 -22.112900
v -24.219299 20.000000 -22.112900
v -32.219299 8.000000 -10.112900
v -32.219299 8.000000 -6.112900
v -32.219299 8.000000 -2.112900
v -24.219299 14.000002 -10.112900
v -32.219299 20.000000 -10.112900
v -24.219299 8.000000 -2.112900
v -24.219299 8.000000 -6.112900
v -24.219299 8.000000 -10.112900
v -24.219299 20.000000 -10.112900
v -24.219299 17.000000 -10.112900
v -32.219299 11.000000 1.887100
v -24.219299 11.000000 1.887100
v -24.219299 17.000000 -6.112900
v -24.219299 14.000000 -6.112900
v -24.219299 11.000000 -6.112900
v -24.219299 14.000000 -2.112900
v -24.219299 11.000000 -2.112900
v -32.219299 14.000000 -2.112900
v -32.219299 11.000000 -2.112900
v -32.219299 17.000000 -6.112900
v -32.219299 14.000000 -6.112900
v -32.219299 11.000000 -6.112900
v -32.219299 17.000000 -10.112900
v -32.219299 14.000002 -10.112900
v -32.219299 11.000002 -10.112900
vn -1.0000 0.0000 0.0000
vn 0.0000 0.0000 -1.0000
vn 0.0000 -1.0000 0.0000
vn 0.0000 1.0000 0.0000
vn 1.0000 0.0000 0.0000
vn 0.0000 0.0000 1.0000
usemtl None
s off
f 8//1 32//1 31//1 30//1 12//1 3//1 2//1
f 2//2 3//2 7//2 6//2
f 10//3 13//3 4//3 1//3
f 21//4 28//4 25//4 23//4
f 7//4 3//4 12//4 16//4
f 2//3 6//3 15//3 8//3
f 8//3 15//3 14//3 9//3
f 9//3 14//3 13//3 10//3
f 6//5 7//5 16//5 17//5 11//5 5//5 15//5
f 15//5 5//5 22//5 14//5
f 9//1 29//1 32//1 8//1
f 8//2 32//2 31//2 30//2 12//2 16//2 17//2 11//2 5//2 15//2
f 21//5 11//5 17//5 20//5
f 22//5 5//5 11//5 21//5
f 10//1 26//1 29//1 9//1
f 26//1 25//1 28//1 29//1
f 1//1 18//1 26//1 10//1
f 14//5 22//5 24//5 13//5
f 22//5 21//5 23//5 24//5
f 17//4 30//4 27//4 20//4
f 4//6 19//6 18//6 1//6
f 13//5 24//5 19//5 4//5
f 32//1 29//1 28//1 31//1
f 31//1 28//1 27//1 30//1
f 28//6 21//6 20//6 27//6
f 25//6 26//6 24//6 23//6
f 18//4 19//4 24//4 26//4
o Socle_Cube.003
v 30.219299 0.000000 -30.219299
v 30.219299 2.000000 -30.219299
v 30.219299 0.000000 30.219299
v 30.219299 2.000000 30.219299
v -30.219299 0.000000 -30.219299
v -30.219299 2.000000 -30.219299
v -30.219299 0.000000 30.219299
v -30.219299 2.000000 30.219299
vn 1.0000 0.0000 0.0000
vn 0.0000 0.0000 1.0000
vn -1.0000 0.0000 0.0000
vn 0.0000 0.0000 -1.0000
vn 0.0000 -1.0000 0.0000
vn 0.0000 1.0000 0.0000
usemtl None
s off
f 33//7 34//7 36//7 35//7
f 35//8 36//8 40//8 39//8
f 39//9 40//9 38//9 37//9
f 37//10 38//10 34//10 33//10
f 35//11 39//11 37//11 33//11
f 40//12 36//12 34//12 38//12
o Maison_Cube
v -30.219292 43.999977 -30.219307
v -30.219307 43.999977 30.219286
v -30.219307 40.999977 30.219286
v -30.219292 40.999977 -30.219307
v 30.219315 43.999977 -30.219292
v 30.219315 40.999977 -30.219292
v -32.219292 43.999977 -32.219307
v -32.219296 44.000000 -22.112862
v -32.219307 44.000000 32.219284
v 30.219286 43.999977 30.219315
v 30.219286 40.999977 30.219315
v 32.219315 43.999977 -32.219299
v 23.219301 43.999977 -32.219299
v 23.142437 43.999977 -32.219299
v 22.914818 43.999977 -32.219299
v 22.545176 43.999977 -32.219299
v 22.047728 43.999977 -32.219299
v 21.441576 43.999977 -32.219299
v 20.750031 43.999977 -32.219299
v 19.999657 43.999977 -32.219299
v 19.219296 43.999977 -32.219299
v 18.438942 43.999977 -32.219299
v 17.688568 43.999977 -32.219299
v 16.997021 43.999977 -32.219299
v 16.390875 43.999977 -32.219299
v 15.893421 43.999977 -32.219299
v 15.523783 43.999977 -32.219299
v 15.296159 43.999977 -32.219299
v 15.219299 43.999977 -32.219299
v -15.219284 43.999977 -32.219303
v -15.296152 43.999977 -32.219303
v -15.523766 43.999977 -32.219303
v -15.893407 43.999977 -32.219303
v -16.390856 43.999977 -32.219303
v -16.997005 43.999977 -32.219303
v -17.688560 43.999977 -32.219303
v -18.438931 43.999977 -32.219303
v -19.219276 43.999977 -32.219303
v -19.999649 43.999977 -32.219303
v -20.750023 43.999977 -32.219303
v -21.441576 43.999977 -32.219303
v -22.047726 43.999977 -32.219303
v -22.545179 43.999977 -32.219303
v -22.914814 43.999977 -32.219303
v -23.142433 43.999977 -32.219303
v -23.219296 43.999977 -32.219303
v 15.219304 43.999977 32.219311
v 15.296165 43.999977 32.219311
v 15.523787 43.999977 32.219311
v 15.893427 43.999977 32.219311
v 16.390881 43.999977 32.219311
v 16.997025 43.999977 32.219311
v 17.688576 43.999977 32.219311
v 18.438946 43.999977 32.219311
v 19.219299 43.999977 32.219311
v 19.999664 43.999977 32.219311
v 20.750036 43.999977 32.219311
v 21.441580 43.999977 32.219311
v 22.047728 43.999977 32.219311
v 22.545183 43.999977 32.219311
v 22.914822 43.999977 32.219311
v 23.142447 43.999977 32.219311
v 23.219299 43.999977 32.219311
v 32.219284 43.999977 32.219315
v 32.219292 43.999977 -10.219294
v 32.219303 43.999977 -30.219294
v 23.219299 26.500000 -32.219303
v 32.219307 35.500000 -32.219299
v 32.219307 26.526495 -32.219299
v 23.142441 27.280361 -32.219303
v 22.914818 28.030735 -32.219303
v 22.545177 28.722279 -32.219303
v 22.047726 29.328426 -32.219303
v 21.441578 29.825878 -32.219303
v 20.750031 30.195517 -32.219303
v 19.999660 30.423141 -32.219303
v 19.219299 30.500000 -32.219303
v 18.438944 30.423141 -32.219303
v 17.688572 30.195518 -32.219303
v 16.997023 29.825880 -32.219303
v 16.390877 29.328430 -32.219303
v 15.893423 28.722284 -32.219303
v 15.523783 28.030737 -32.219303
v 15.296158 27.280365 -32.219303
v 15.219299 26.500004 -32.219303
v -15.219299 26.500000 -32.219307
v -15.296159 27.280361 -32.219307
v -15.523783 28.030735 -32.219307
v -15.893421 28.722282 -32.219307
v -16.390873 29.328426 -32.219307
v -16.997019 29.825878 -32.219307
v -17.688568 30.195518 -32.219307
v -18.438938 30.423141 -32.219307
v -19.219299 30.500000 -32.219307
v -19.999655 30.423143 -32.219307
v -20.750027 30.195522 -32.219307
v -21.441576 29.825882 -32.219307
v -22.047722 29.328430 -32.219307
v -22.545176 28.722286 -32.219307
v -22.914816 28.030739 -32.219307
v -23.142439 27.280365 -32.219307
v -23.219299 26.500004 -32.219307
v -32.219288 26.500008 -32.219311
v 15.296160 27.280361 32.219292
v 15.523783 28.030735 32.219292
v 15.893423 28.722282 32.219292
v 16.390877 29.328428 32.219292
v 16.997023 29.825878 32.219292
v 17.688572 30.195517 32.219292
v 18.438944 30.423141 32.219292
v 19.219299 30.499998 32.219292
v 19.999660 30.423140 32.219292
v 20.750034 30.195515 32.219292
v 21.441580 29.825874 32.219292
v 22.047726 29.328424 32.219292
v 22.545177 28.722279 32.219292
v 22.914818 28.030731 32.219292
v 23.142441 27.280359 32.219292
v 23.219299 26.499996 32.219292
v 32.219292 26.500004 32.219299
v 32.219292 35.500000 32.219299
v 32.219292 35.500000 23.219303
v 32.219292 35.500000 23.142445
v 32.219292 35.500000 22.914816
v 32.219292 35.500000 22.545179
v 32.219292 35.500000 22.047728
v 32.219292 35.500000 21.441580
v 32.219292 35.500000 20.750032
v 32.219292 35.500000 19.999659
v 32.219292 35.500000 19.219297
v 32.219292 35.500000 18.438938
v 32.219292 35.500000 17.688560
v 32.219292 35.500000 16.997017
v 32.219292 35.500000 16.390869
v 32.219292 35.500000 15.893418
v 32.219292 35.500000 15.523778
v 32.219292 35.500000 15.296156
v 32.219292 35.500000 15.219299
v 32.219296 35.500000 -10.219297
v 32.219303 35.500000 -30.219296
v 32.219303 15.500002 -32.219296
v 23.219299 15.500004 -32.219299
v 32.219299 15.500001 -30.219299
v 23.219299 26.500000 -30.219307
v 23.142441 27.280361 -30.219307
v 22.914818 28.030733 -30.219307
v 22.545177 28.722279 -30.219307
v 22.047726 29.328426 -30.219307
v 21.441578 29.825878 -30.219307
v 20.750031 30.195517 -30.219307
v 19.999660 30.423141 -30.219307
v 19.219299 30.500000 -30.219307
v 18.438944 30.423141 -30.219307
v 17.688572 30.195518 -30.219307
v 16.997021 29.825880 -30.219307
v 16.390877 29.328430 -30.219307
v 15.893423 28.722284 -30.219307
v 15.523783 28.030737 -30.219307
v 15.296158 27.280365 -30.219307
v 15.219299 26.500004 -30.219307
v 15.219299 15.500005 -32.219299
v -15.219301 15.500010 -32.219307
v -15.219299 26.500000 -30.219311
v -15.296158 27.280361 -30.219311
v -15.523782 28.030735 -30.219311
v -15.893421 28.722281 -30.219311
v -16.390873 29.328426 -30.219311
v -16.997019 29.825878 -30.219311
v -17.688566 30.195518 -30.219311
v -18.438938 30.423141 -30.219311
v -19.219299 30.500000 -30.219311
v -19.999655 30.423141 -30.219311
v -20.750027 30.195520 -30.219311
v -21.441576 29.825882 -30.219311
v -22.047722 29.328430 -30.219311
v -22.545176 28.722286 -30.219311
v -22.914816 28.030739 -30.219311
v -23.142439 27.280365 -30.219311
v -23.219299 26.500004 -30.219311
v -23.219296 15.500010 -32.219307
v -32.219288 15.500012 -32.219311
v -32.219288 2.000000 -22.112869
v -32.219288 8.000000 -22.112867
v -32.219292 37.500008 -22.112862
v -32.219296 43.999977 -22.112862
v -32.219284 2.000000 -32.219311
v 15.219302 37.500000 32.219303
v 15.219299 26.500002 32.219296
v 15.219304 43.999977 32.219311
v 15.523783 28.030735 30.219282
v 15.296159 27.280363 30.219282
v 15.893423 28.722282 30.219282
v 16.390877 29.328428 30.219282
v 16.997023 29.825878 30.219282
v 17.688572 30.195518 30.219282
v 18.438944 30.423140 30.219282
v 19.219299 30.499998 30.219282
v 19.999660 30.423140 30.219282
v 20.750032 30.195515 30.219282
v 21.441580 29.825876 30.219282
v 22.047726 29.328424 30.219282
v 22.545177 28.722279 30.219282
v 22.914818 28.030731 30.219282
v 23.142441 27.280359 30.219282
v 23.219299 26.499998 30.219282
v 23.219299 15.500002 32.219296
v 32.219296 15.500002 32.219296
v 32.219296 26.500000 23.219299
v 32.219296 27.280363 23.142441
v 32.219296 28.030735 22.914816
v 32.219296 28.722282 22.545177
v 32.219296 29.328430 22.047726
v 32.219296 29.825880 21.441578
v 32.219296 30.195518 20.750031
v 32.219296 30.423141 19.999657
v 32.219296 30.500000 19.219299
v 32.219296 30.423140 18.438934
v 32.219296 30.195517 17.688560
v 32.219296 29.825874 16.997015
v 32.219296 29.328423 16.390869
v 32.219296 28.722275 15.893417
v 32.219296 28.030727 15.523779
v 32.219296 27.280355 15.296157
v 32.219296 26.500000 15.219299
v 32.219296 26.500004 -10.219299
v 32.219296 35.500000 -10.219297
v 23.219299 15.500004 -30.219299
v 23.219299 26.500000 -30.219303
v 32.219299 2.000000 -32.219299
v 32.219303 35.500000 -30.219296
v 32.219299 15.500000 -30.219299
v 32.219299 2.000000 -30.219303
v -30.219284 38.999977 -30.219311
v 30.219299 38.999977 -30.219299
v 15.219299 26.500004 -30.219303
v 15.219299 15.500005 -30.219299
v -15.219301 15.500010 -30.219307
v -15.219299 26.500000 -30.219307
v -23.219299 26.500004 -30.219307
v -23.219296 15.500010 -30.219307
v -30.219284 2.000000 -30.219311
v -30.219303 2.000000 30.219292
v -32.219303 2.000000 32.219292
v -32.219307 44.000000 32.219284
v -32.219307 37.500000 32.219284
v -24.219307 37.499996 32.219284
v -24.219303 26.500004 32.219288
v 15.219299 26.500002 30.219282
v 32.219296 15.500002 23.219296
v 23.219299 26.499996 30.219292
v 23.219299 15.500002 30.219296
v 30.219296 26.500000 23.219299
v 30.219296 27.280363 23.142441
v 30.219296 28.030735 22.914816
v 30.219296 28.722282 22.545177
v 30.219296 29.328430 22.047726
v 30.219296 29.825880 21.441578
v 30.219296 30.195518 20.750031
v 30.219296 30.423141 19.999657
v 30.219296 30.500000 19.219296
v 30.219296 30.423140 18.438934
v 30.219296 30.195517 17.688560
v 30.219296 29.825874 16.997015
v 30.219296 29.328423 16.390869
v 30.219296 28.722275 15.893417
v 30.219296 28.030727 15.523779
v 30.219296 27.280355 15.296157
v 30.219296 26.500000 15.219299
v 32.219299 15.500001 -10.219301
v 32.219299 15.500000 -10.219301
v 32.219296 15.500002 15.219301
v 30.219299 2.000000 -30.219299
v 26.219303 35.500000 -30.219296
v 26.219299 15.500001 -30.219299
v 32.219299 7.999994 -10.219303
v 32.219299 2.000000 -10.219305
v 30.219299 2.000000 30.219299
v 32.219299 2.000000 32.219299
v 30.219299 38.999977 30.219299
v -30.219303 38.999977 30.219292
v -32.219296 44.000000 -22.112862
v -32.219292 37.500000 -22.112862
v -24.219307 37.499996 32.219284
v 32.219299 7.999995 32.219299
v 30.219296 15.500002 23.219296
v 15.219301 15.500002 32.219299
v 15.219301 15.500002 30.219296
v 30.219296 15.500002 15.219301
v 26.219299 15.500001 -10.219301
v 26.219296 35.500000 -10.219297
v -32.219303 7.999999 32.219292
v -24.219303 26.500000 32.219303
v -24.219303 15.500001 32.219303
v -24.219303 7.999999 32.219292
v 15.219299 26.500002 30.219292
v -32.219288 8.000000 -22.112867
v -32.219288 2.000000 -22.112869
v -24.219303 22.000000 15.219299
v -24.219299 22.780355 15.296158
v -24.219301 23.530729 15.523779
v -24.219301 24.222277 15.893417
v -24.219299 24.828424 16.390869
v -24.219299 25.325876 16.997015
v -24.219301 25.695517 17.688560
v -24.219301 25.923141 18.438934
v -24.219301 26.000000 19.219296
v -24.219301 25.923141 19.999657
v -24.219301 25.695520 20.750031
v -24.219301 25.325880 21.441578
v -24.219303 24.828430 22.047726
v -24.219303 24.222282 22.545177
v -24.219303 23.530735 22.914816
v -24.219303 22.780363 23.142441
v -24.219301 22.000002 23.219299
v -24.219296 37.500000 -22.112894
v -24.219288 8.000001 -22.112900
v -24.219303 15.500005 32.219288
v -32.219307 37.499996 32.219284
v -32.219292 37.500000 -22.112894
v -32.219288 8.000001 -22.112900
v -32.219303 7.999999 32.219292
v -24.219307 37.499996 32.219284
v 15.219302 37.500000 32.219303
v 15.219302 37.500000 32.219303
v -24.219307 37.499996 32.219284
v -22.219305 22.000000 15.219299
v -22.219305 22.780355 15.296158
v -24.219294 22.000006 -22.112898
v -22.219305 22.000000 23.219299
v -22.219305 22.780363 23.142441
v -22.219305 23.530735 22.914816
v -22.219305 24.222282 22.545177
v -22.219305 24.828428 22.047726
v -22.219305 25.325880 21.441578
v -22.219305 25.695518 20.750031
v -22.219305 25.923141 19.999657
v -22.219305 26.000000 19.219296
v -22.219305 25.923140 18.438934
v -22.219305 25.695517 17.688560
v -22.219305 25.325874 16.997015
v -22.219305 24.828423 16.390869
v -22.219305 24.222277 15.893417
v -22.219305 23.530727 15.523779
v -24.219303 22.000004 32.219303
v -24.219301 8.000000 23.219296
v -24.219299 8.000000 15.219294
v -24.219305 37.499996 15.219292
v -24.219303 37.499996 18.438936
v -24.219303 37.499996 19.219299
v -24.219303 37.499996 19.999660
v -24.219305 37.499996 23.219299
v -24.219301 37.499996 15.296159
v -24.219301 37.499996 15.523784
v -24.219301 37.499996 15.893416
v -24.219301 37.499996 16.390873
v -24.219301 37.499996 16.997017
v -24.219301 37.499996 17.688560
v -24.219303 37.499996 20.750032
v -24.219303 37.499996 21.441576
v -24.219303 37.499996 22.047726
v -24.219305 37.499996 22.914820
v -24.219305 37.499996 23.142437
v -24.219305 37.499996 22.545176
v -22.219299 22.000000 15.219299
v -22.219301 22.000002 23.219299
v -22.219301 7.999999 23.219296
v -22.219299 8.000000 15.219294
vn 1.0000 0.0000 0.0000
vn -0.0000 0.0000 1.0000
vn 0.0000 1.0000 -0.0000
vn 0.0000 0.0000 -1.0000
vn -1.0000 0.0000 -0.0000
vn -0.9952 -0.0980 0.0000
vn -0.9569 -0.2903 0.0000
vn -0.8819 -0.4714 0.0000
vn -0.7730 -0.6344 0.0000
vn -0.6344 -0.7730 0.0000
vn -0.4714 -0.8819 0.0000
vn -0.2903 -0.9569 0.0000
vn -0.0980 -0.9952 0.0000
vn 0.0980 -0.9952 0.0000
vn 0.2903 -0.9569 0.0000
vn 0.4714 -0.8819 0.0000
vn 0.6344 -0.7730 0.0000
vn 0.7730 -0.6344 0.0000
vn 0.8819 -0.4714 0.0000
vn 0.9569 -0.2903 0.0000
vn 0.9952 -0.0980 0.0000
vn 0.0000 -1.0000 0.0000
vn 0.0000 -0.0980 -0.9952
vn 0.0000 -0.2903 -0.9569
vn 0.0000 -0.4714 -0.8819
vn 0.0000 -0.6344 -0.7730
vn 0.0000 -0.7730 -0.6344
vn 0.0000 -0.8819 -0.4714
vn 0.0000 -0.9569 -0.2903
vn 0.0000 -0.9952 -0.0980
vn -0.0000 -0.9952 0.0980
vn 0.0000 -0.9569 0.2903
vn 0.0000 -0.8819 0.4714
vn 0.0000 -0.7730 0.6344
vn 0.0000 -0.6344 0.7730
vn 0.0000 -0.4714 0.8819
vn 0.0000 -0.2903 0.9569
vn 0.0000 -0.0980 0.9952
vn -0.6644 0.0000 0.7474
vn -1.0000 -0.0000 0.0001
usemtl Material
s off
f 41//13 42//13 43//13 44//13
f 45//14 41//14 44//14 46//14
f 42//15 41//15 47//15 48//15 49//15
f 42//16 50//16 51//16 43//16
f 46//15 44//15 43//15 51//15
f 50//17 45//17 46//17 51//17
f 41//15 45//15 52//15 53//15 54//15 55//15 56//15 57//15 58//15 59//15 60//15 61//15 62//15 63//15 64//15 65//15 66//15 67//15 68//15 69//15 70//15 71//15 72//15 73//15 74//15 75//15 76//15 77//15 78//15 79//15 80//15 81//15 82//15 83//15 84//15 85//15 86//15 47//15
f 50//15 42//15 49//15 87//15 88//15 89//15 90//15 91//15 92//15 93//15 94//15 95//15 96//15 97//15 98//15 99//15 100//15 101//15 102//15 103//15 104//15
f 45//15 50//15 104//15 105//15 106//15 52//15
f 107//16 53//16 52//16 108//16 109//16
f 110//16 54//16 53//16 107//16
f 111//16 55//16 54//16 110//16
f 112//16 56//16 55//16 111//16
f 113//16 57//16 56//16 112//16
f 114//16 58//16 57//16 113//16
f 115//16 59//16 58//16 114//16
f 116//16 60//16 59//16 115//16
f 117//16 61//16 60//16 116//16
f 118//16 62//16 61//16 117//16
f 119//16 63//16 62//16 118//16
f 120//16 64//16 63//16 119//16
f 121//16 65//16 64//16 120//16
f 122//16 66//16 65//16 121//16
f 123//16 67//16 66//16 122//16
f 124//16 68//16 67//16 123//16
f 125//16 69//16 68//16 124//16
f 126//16 70//16 69//16 125//16
f 70//16 126//16 127//16 71//16
f 71//16 127//16 128//16 72//16
f 72//16 128//16 129//16 73//16
f 73//16 129//16 130//16 74//16
f 74//16 130//16 131//16 75//16
f 75//16 131//16 132//16 76//16
f 76//16 132//16 133//16 77//16
f 77//16 133//16 134//16 78//16
f 78//16 134//16 135//16 79//16
f 79//16 135//16 136//16 80//16
f 80//16 136//16 137//16 81//16
f 81//16 137//16 138//16 82//16
f 82//16 138//16 139//16 83//16
f 83//16 139//16 140//16 84//16
f 84//16 140//16 141//16 85//16
f 85//16 141//16 142//16 86//16
f 86//16 142//16 143//16 47//16
f 88//14 144//14 145//14 89//14
f 89//14 145//14 146//14 90//14
f 90//14 146//14 147//14 91//14
f 91//14 147//14 148//14 92//14
f 148//14 149//14 93//14 92//14
f 93//14 149//14 150//14 94//14
f 94//14 150//14 151//14 95//14
f 95//14 151//14 152//14 96//14
f 96//14 152//14 153//14 97//14
f 97//14 153//14 154//14 98//14
f 98//14 154//14 155//14 99//14
f 99//14 155//14 156//14 100//14
f 100//14 156//14 157//14 101//14
f 157//14 158//14 102//14 101//14
f 102//14 158//14 159//14 103//14
f 103//14 159//14 160//14 161//14 104//14
f 105//13 104//13 161//13 162//13 163//13 164//13 165//13 166//13 167//13 168//13 169//13 170//13 171//13 172//13 173//13 174//13 175//13 176//13 177//13 178//13 179//13
f 106//13 105//13 179//13 180//13
f 52//13 106//13 180//13 108//13
f 107//16 109//16 181//16 182//16
f 108//13 180//13 183//13 181//13 109//13
f 107//18 184//18 185//18 110//18
f 110//19 185//19 186//19 111//19
f 111//20 186//20 187//20 112//20
f 112//21 187//21 188//21 113//21
f 113//22 188//22 189//22 114//22
f 114//23 189//23 190//23 115//23
f 115//24 190//24 191//24 116//24
f 116//25 191//25 192//25 117//25
f 117//26 192//26 193//26 118//26
f 118//27 193//27 194//27 119//27
f 119//28 194//28 195//28 120//28
f 120//29 195//29 196//29 121//29
f 121//30 196//30 197//30 122//30
f 122//31 197//31 198//31 123//31
f 123//32 198//32 199//32 124//32
f 124//33 199//33 200//33 125//33
f 125//16 201//16 202//16 126//16
f 126//18 203//18 204//18 127//18
f 127//19 204//19 205//19 128//19
f 128//20 205//20 206//20 129//20
f 129//21 206//21 207//21 130//21
f 130//22 207//22 208//22 131//22
f 131//23 208//23 209//23 132//23
f 132//24 209//24 210//24 133//24
f 133//25 210//25 211//25 134//25
f 134//26 211//26 212//26 135//26
f 135//27 212//27 213//27 136//27
f 136//28 213//28 214//28 137//28
f 137//29 214//29 215//29 138//29
f 138//30 215//30 216//30 139//30
f 139//31 216//31 217//31 140//31
f 140//32 217//32 218//32 141//32
f 141//33 218//33 219//33 142//33
f 143//16 142//16 220//16 221//16
f 222//17 223//17 224//17 225//17 47//17 143//17 221//17 226//17
f 227//14 228//14 144//14 88//14 229//14
f 230//32 145//32 144//32 231//32
f 232//31 146//31 145//31 230//31
f 233//30 147//30 146//30 232//30
f 234//29 148//29 147//29 233//29
f 235//28 149//28 148//28 234//28
f 236//27 150//27 149//27 235//27
f 237//26 151//26 150//26 236//26
f 238//25 152//25 151//25 237//25
f 239//24 153//24 152//24 238//24
f 240//23 154//23 153//23 239//23
f 241//22 155//22 154//22 240//22
f 242//21 156//21 155//21 241//21
f 243//20 157//20 156//20 242//20
f 244//19 158//19 157//19 243//19
f 245//18 159//18 158//18 244//18
f 160//14 159//14 246//14 247//14
f 248//13 162//13 161//13 160//13
f 249//13 163//13 162//13 248//13
f 250//13 164//13 163//13 249//13
f 251//13 165//13 164//13 250//13
f 252//13 166//13 165//13 251//13
f 253//13 167//13 166//13 252//13
f 254//13 168//13 167//13 253//13
f 255//13 169//13 168//13 254//13
f 256//13 170//13 169//13 255//13
f 257//13 171//13 170//13 256//13
f 258//13 172//13 171//13 257//13
f 259//13 173//13 172//13 258//13
f 260//13 174//13 173//13 259//13
f 261//13 175//13 174//13 260//13
f 262//13 176//13 175//13 261//13
f 263//13 177//13 176//13 262//13
f 264//13 178//13 177//13 263//13
f 179//13 178//13 264//13 265//13
f 179//14 266//14 270//14 180//14
f 107//17 182//17 267//17 268//17
f 221//16 220//16 202//16 201//16 182//16 181//16 269//16 226//16
f 183//14 180//14 270//14 271//14
f 181//13 183//13 272//13 269//13
f 273//14 219//14 218//14 217//14 216//14 215//14 214//14 213//14 212//14 211//14 210//14 209//14 208//14 207//14 206//14 205//14 204//14 203//14 200//14 199//14 198//14 197//14 196//14 195//14 194//14 193//14 192//14 191//14 190//14 189//14 188//14 187//14 186//14 185//14 184//14 274//14
f 201//13 125//13 275//13 276//13
f 126//17 202//17 277//17 278//17
f 220//13 142//13 279//13 280//13
f 281//34 282//34 283//34 222//34 226//34
f 284//14 285//14 227//14 229//14
f 227//14 286//14 287//14 228//14
f 231//33 144//33 228//33 288//33
f 289//13 248//13 160//13 247//13
f 246//17 159//17 290//17 291//17
f 249//35 248//35 292//35 293//35
f 250//36 249//36 293//36 294//36
f 251//37 250//37 294//37 295//37
f 252//38 251//38 295//38 296//38
f 253//39 252//39 296//39 297//39
f 254//40 253//40 297//40 298//40
f 255//41 254//41 298//41 299//41
f 256//42 255//42 299//42 300//42
f 257//43 256//43 300//43 301//43
f 258//44 257//44 301//44 302//44
f 259//45 258//45 302//45 303//45
f 260//46 259//46 303//46 304//46
f 261//47 260//47 304//47 305//47
f 262//48 261//48 305//48 306//48
f 263//49 262//49 306//49 307//49
f 264//50 263//50 307//50 308//50
f 179//51 265//51 309//51 310//51 266//51
f 265//13 264//13 311//13 309//13
f 182//15 201//15 276//15 267//15
f 202//15 220//15 280//15 277//15
f 312//34 281//34 226//34 269//34
f 309//17 183//17 271//17 310//17
f 271//14 270//14 313//14 314//14
f 183//13 309//13 315//13 316//13 272//13
f 317//34 312//34 269//34 272//34 316//34 318//34
f 274//34 319//34 320//34 273//34
f 282//34 317//34 318//34 283//34
f 321//17 322//17 285//17 284//17
f 309//13 311//13 289//13 247//13 324//13 315//13
f 248//16 289//16 325//16 292//16
f 326//15 246//15 291//15 327//15
f 311//14 264//14 308//14 328//14
f 266//16 310//16 329//16 330//16
f 270//34 266//34 330//34 313//34
f 310//15 271//15 314//15 329//15
f 314//13 313//13 330//13 329//13
f 315//13 324//13 318//13 316//13
f 318//14 324//14 331//14 283//14
f 332//13 287//13 286//13 323//13
f 289//15 311//15 328//15 325//15
f 247//14 333//14 334//14 324//14
f 228//13 326//13 327//13 335//13
f 283//17 331//17 336//17 337//17
f 332//13 384//13 333//13 357//13 287//13
f 333//14 326//14 228//14 332//14 384//14
f 358//34 359//34 355//34 387//34 392//34 393//34 394//34 395//34 396//34 397//34 388//34 389//34 390//34 398//34 399//34 400//34 403//34 401//34 402//34 391//34 323//34
f 359//14 360//14 356//14 368//14 355//14
f 360//15 361//15 334//15 385//15 386//15 356//15
f 339//50 338//50 366//50 367//50
f 340//49 339//49 367//49 383//49
f 341//48 340//48 383//48 382//48
f 342//47 341//47 382//47 381//47
f 343//46 342//46 381//46 380//46
f 344//45 343//45 380//45 379//45
f 345//44 344//44 379//44 378//44
f 346//43 345//43 378//43 377//43
f 347//42 346//42 377//42 376//42
f 348//41 347//41 376//41 375//41
f 349//40 348//40 375//40 374//40
f 350//39 349//39 374//39 373//39
f 351//38 350//38 373//38 372//38
f 352//37 351//37 372//37 371//37
f 353//36 352//36 371//36 370//36
f 354//35 353//35 370//35 369//35
f 368//17 338//17 387//17 355//17
f 384//17 354//17 385//17 334//17 333//17
f 363//14 364//14 365//14 362//14
f 386//17 338//17 368//17 356//17
f 387//52 338//52 339//52 392//52
f 388//17 345//17 346//17 389//17
f 389//17 346//17 347//17 390//17
f 390//17 347//17 348//17 398//17
f 392//17 339//17 340//17 393//17
f 393//17 340//17 341//17 394//17
f 394//17 341//17 342//17 395//17
f 395//17 342//17 343//17 396//17
f 396//17 343//17 344//17 397//17
f 397//17 344//17 345//17 388//17
f 391//17 354//17 384//17 332//17 323//17
f 398//17 348//17 349//17 399//17
f 399//17 349//17 350//17 400//17
f 400//17 350//17 351//17 403//17
f 401//17 352//17 353//17 402//17
f 402//17 353//17 354//17 391//17
f 403//17 351//17 352//17 401//17
f 385//16 354//16 405//16 406//16
f 338//14 386//14 407//14 404//14
f 386//15 385//15 406//15 407//15
