# Blender v2.79 (sub 0) OBJ File: ''
# www.blender.org
mtllib santoriniDome.mtl
o Sphere
v 0.000000 24.519630 -4.877258
v 0.000000 23.096987 -9.567086
v 0.000000 20.786739 -13.889256
v 0.000000 17.677670 -17.677670
v 0.000000 13.889255 -20.786741
v 0.000000 9.567085 -23.096987
v 0.000000 4.877259 -24.519630
v 0.000000 0.000002 -25.000000
v 0.951507 24.519630 -4.783543
v 1.866448 23.096987 -9.383258
v 2.709661 20.786739 -13.622377
v 3.448744 17.677670 -17.337997
v 4.055294 13.889255 -20.387329
v 4.506000 9.567085 -22.653185
v 4.783545 4.877259 -24.048492
v 4.877260 0.000002 -24.519630
v 1.866449 24.519630 -4.505999
v 3.661168 23.096987 -8.838836
v 5.315191 20.786739 -12.831998
v 6.764955 17.677670 -16.332035
v 7.954744 13.889255 -19.204443
v 8.838837 9.567085 -21.338833
v 9.383260 4.877259 -22.653183
v 9.567089 0.000002 -23.096987
v 2.709664 24.519630 -4.055291
v 5.315193 23.096987 -7.954741
v 7.716461 20.786739 -11.548492
v 9.821192 17.677670 -14.698442
v 11.548498 13.889255 -17.283541
v 12.832003 9.567085 -19.204441
v 13.622381 4.877259 -20.387325
v 13.889260 0.000002 -20.786737
v 3.448748 24.519630 -3.448740
v 6.764957 23.096987 -6.764949
v 9.821192 20.786739 -9.821184
v 12.500005 17.677670 -12.499997
v 14.698450 13.889255 -14.698442
v 16.332041 9.567085 -16.332033
v 17.338001 4.877259 -17.337994
v 17.677675 0.000002 -17.677666
v 4.055298 24.519630 -2.709656
v 7.954748 23.096987 -5.315185
v 11.548500 20.786739 -7.716453
v 14.698450 17.677670 -9.821182
v 17.283548 13.889255 -11.548490
v 19.204449 9.567085 -12.831995
v 20.387333 4.877259 -13.622371
v 20.786745 0.000002 -13.889250
v 4.506006 24.519630 -1.866441
v 8.838842 23.096987 -3.661160
v 12.832006 20.786739 -5.315183
v 16.332043 17.677670 -6.764946
v 19.204449 13.889255 -7.954735
v 21.338839 9.567085 -8.838829
v 22.653189 4.877259 -9.383247
v 23.096994 0.000002 -9.567079
v 4.783550 24.519630 -0.951499
v 9.383265 23.096987 -1.866439
v 13.622384 20.786739 -2.709653
v 17.338003 17.677670 -3.448735
v 20.387333 13.889255 -4.055285
v 22.653189 9.567085 -4.505993
v 24.048496 4.877259 -4.783534
v 24.519638 0.000002 -4.877250
v 4.877265 24.519630 0.000008
v 9.567092 23.096987 0.000008
v 13.889262 20.786739 0.000008
v 17.677673 17.677670 0.000008
v 20.786745 13.889255 0.000008
v 23.096992 9.567085 0.000007
v 24.519630 4.877259 0.000010
v 25.000006 0.000002 0.000009
v 4.783550 24.519630 0.951515
v 9.383264 23.096987 1.866455
v 13.622384 20.786739 2.709668
v 17.338001 17.677670 3.448751
v 20.387333 13.889255 4.055301
v 22.653189 9.567085 4.506006
v 24.048492 4.877259 4.783553
v 24.519638 0.000002 4.877268
v 4.506005 24.519630 1.866457
v 8.838840 23.096987 3.661175
v 12.832004 20.786739 5.315198
v 16.332041 17.677670 6.764960
v 19.204445 13.889255 7.954751
v 21.338839 9.567085 8.838842
v 22.653183 4.877259 9.383265
v 23.096992 0.000002 9.567097
v 4.055297 24.519630 2.709671
v 7.954746 23.096987 5.315199
v 11.548498 20.786739 7.716467
v 14.698449 17.677670 9.821196
v 17.283545 13.889255 11.548504
v 19.204447 9.567085 12.832006
v 20.387325 4.877259 13.622385
v 20.786743 0.000002 13.889267
v 3.448746 24.519630 3.448755
v 6.764956 23.096987 6.764963
v 9.821190 20.786739 9.821198
v 12.500002 17.677670 12.500009
v 14.698444 13.889255 14.698455
v 16.332041 9.567085 16.332045
v 17.337996 4.877259 17.338005
v 17.677671 0.000002 17.677681
v 2.709662 24.519630 4.055305
v 5.315191 23.096987 7.954752
v 7.716459 20.786739 11.548504
v 9.821188 17.677670 14.698455
v 11.548493 13.889255 17.283552
v 12.832003 9.567085 19.204453
v 13.622375 4.877259 20.387335
v 13.889256 0.000002 20.786753
v 1.866448 24.519630 4.506012
v 3.661168 23.096987 8.838846
v 5.315190 20.786739 12.832010
v 6.764951 17.677670 16.332045
v 7.954739 13.889255 19.204451
v 8.838837 9.567085 21.338842
v 9.383254 4.877259 22.653191
v 9.567085 0.000002 23.097000
v 0.951507 24.519630 4.783556
v 1.866448 23.096987 9.383268
v 2.709661 20.786739 13.622388
v 3.448741 17.677670 17.338007
v 4.055289 13.889255 20.387333
v 4.506001 9.567085 22.653194
v 4.783540 4.877259 24.048498
v 4.877256 0.000002 24.519644
v -0.000000 24.519630 4.877271
v 0.000001 23.096987 9.567096
v 0.000001 20.786739 13.889267
v -0.000001 17.677670 17.677677
v -0.000002 13.889255 20.786743
v 0.000002 9.567085 23.096996
v -0.000002 4.877259 24.519634
v -0.000003 0.000002 25.000010
v -0.951507 24.519630 4.783556
v -1.866445 23.096987 9.383266
v -2.709659 20.786739 13.622388
v -3.448743 17.677670 17.338005
v -4.055293 13.889255 20.387331
v -4.505998 9.567085 22.653194
v -4.783544 4.877259 24.048496
v -4.877261 0.000002 24.519640
v -1.866448 24.519630 4.506011
v -3.661165 23.096987 8.838843
v -5.315188 20.786739 12.832010
v -6.764951 17.677670 16.332045
v -7.954741 13.889255 19.204443
v -8.838833 9.567085 21.338842
v -9.383257 4.877259 22.653187
v -9.567089 0.000002 23.096994
v -2.709662 24.519630 4.055304
v -5.315188 23.096987 7.954750
v -7.716457 20.786739 11.548504
v -9.821187 17.677670 14.698452
v -11.548492 13.889255 17.283543
v -12.831998 9.567085 19.204451
v -13.622376 4.877259 20.387329
v -13.889259 0.000002 20.786745
v -0.000006 25.000000 0.000014
v -3.448745 24.519630 3.448753
v -6.764951 23.096987 6.764959
v -9.821188 20.786739 9.821197
v -12.500000 17.677670 12.500006
v -14.698442 13.889255 14.698444
v -16.332035 9.567085 16.332045
v -17.337994 4.877259 17.337997
v -17.677671 0.000002 17.677673
v -4.055295 24.519630 2.709669
v -7.954741 23.096987 5.315195
v -11.548494 20.786739 7.716466
v -14.698444 17.677670 9.821193
v -17.283539 13.889255 11.548494
v -19.204443 9.567085 12.832006
v -20.387323 4.877259 13.622376
v -20.786741 0.000002 13.889259
v -4.506002 24.519630 1.866455
v -8.838834 23.096987 3.661172
v -12.832000 20.786739 5.315196
v -16.332037 17.677670 6.764956
v -19.204435 13.889255 7.954742
v -21.338835 9.567085 8.838842
v -22.653179 4.877259 9.383256
v -23.096987 0.000002 9.567089
v -4.783546 24.519630 0.951514
v -9.383255 23.096987 1.866453
v -13.622377 20.786739 2.709667
v -17.337997 17.677670 3.448747
v -20.387320 13.889255 4.055294
v -22.653185 9.567085 4.506007
v -24.048485 4.877259 4.783544
v -24.519630 0.000002 4.877261
v -4.877262 24.519630 0.000008
v -9.567084 23.096987 0.000007
v -13.889255 20.786739 0.000007
v -17.677668 17.677670 0.000005
v -20.786732 13.889255 0.000004
v -23.096987 9.567085 0.000008
v -24.519621 4.877259 0.000002
v -24.999996 0.000002 0.000004
v -4.783546 24.519630 -0.951499
v -9.383255 23.096987 -1.866438
v -13.622376 20.786739 -2.709652
v -17.337996 17.677670 -3.448737
v -20.387318 13.889255 -4.055286
v -22.653183 9.567085 -4.505991
v -24.048481 4.877259 -4.783538
v -24.519625 0.000002 -4.877254
v -4.506002 24.519630 -1.866439
v -8.838833 23.096987 -3.661158
v -12.831996 20.786739 -5.315181
v -16.332033 17.677670 -6.764946
v -19.204432 13.889255 -7.954734
v -21.338833 9.567085 -8.838826
v -22.653172 4.877259 -9.383249
v -23.096981 0.000002 -9.567080
v -4.055295 24.519630 -2.709653
v -7.954739 23.096987 -5.315180
v -11.548491 20.786739 -7.716449
v -14.698442 17.677670 -9.821181
v -17.283531 13.889255 -11.548485
v -19.204441 9.567085 -12.831990
v -20.387314 4.877259 -13.622368
v -20.786732 0.000002 -13.889249
v -3.448744 24.519630 -3.448737
v -6.764948 23.096987 -6.764942
v -9.821183 20.786739 -9.821178
v -12.499996 17.677670 -12.499993
v -14.698432 13.889255 -14.698434
v -16.332035 9.567085 -16.332027
v -17.337984 4.877259 -17.337984
v -17.677658 0.000002 -17.677660
v -2.709661 24.519630 -4.055286
v -5.315186 23.096987 -7.954731
v -7.716453 20.786739 -11.548485
v -9.821182 17.677670 -14.698437
v -11.548483 13.889255 -17.283529
v -12.831996 9.567085 -19.204433
v -13.622364 4.877259 -20.387312
v -13.889246 0.000002 -20.786728
v -1.866446 24.519630 -4.505994
v -3.661163 23.096987 -8.838825
v -5.315185 20.786739 -12.831989
v -6.764947 17.677670 -16.332029
v -7.954730 13.889255 -19.204428
v -8.838833 9.567085 -21.338823
v -9.383245 4.877259 -22.653166
v -9.567076 0.000002 -23.096973
v -0.951506 24.519630 -4.783538
v -1.866443 23.096987 -9.383246
v -2.709656 20.786739 -13.622366
v -3.448738 17.677670 -17.337988
v -4.055283 13.889255 -20.387310
v -4.505997 9.567085 -22.653175
v -4.783534 4.877259 -24.048471
v -4.877250 0.000002 -24.519613
vn 0.0759 0.6326 -0.7708
vn 0.0865 0.4696 -0.8786
vn 0.0938 0.2890 -0.9527
vn 0.0975 0.0975 -0.9904
vn 0.0097 0.9951 -0.0980
vn 0.0286 0.9565 -0.2902
vn 0.0464 0.8810 -0.4709
vn 0.0624 0.7715 -0.6332
vn 0.1374 0.8810 -0.4528
vn 0.1847 0.7715 -0.6088
vn 0.2248 0.6326 -0.7412
vn 0.2563 0.4696 -0.8448
vn 0.2779 0.2890 -0.9161
vn 0.2889 0.0975 -0.9524
vn 0.0286 0.9951 -0.0942
vn 0.0846 0.9565 -0.2790
vn 0.4513 0.2890 -0.8443
vn 0.4691 0.0975 -0.8777
vn 0.0464 0.9951 -0.0869
vn 0.1374 0.9565 -0.2571
vn 0.2230 0.8810 -0.4173
vn 0.2999 0.7715 -0.5611
vn 0.3651 0.6326 -0.6831
vn 0.4162 0.4696 -0.7786
vn 0.4036 0.7715 -0.4918
vn 0.4913 0.6326 -0.5987
vn 0.5601 0.4696 -0.6825
vn 0.6073 0.2890 -0.7400
vn 0.6314 0.0975 -0.7693
vn 0.0625 0.9951 -0.0761
vn 0.1850 0.9565 -0.2254
vn 0.3002 0.8810 -0.3658
vn 0.7693 0.0976 -0.6314
vn 0.0761 0.9951 -0.0625
vn 0.2254 0.9565 -0.1850
vn 0.3658 0.8810 -0.3002
vn 0.4918 0.7715 -0.4036
vn 0.5987 0.6326 -0.4913
vn 0.6825 0.4696 -0.5601
vn 0.7400 0.2890 -0.6073
vn 0.6831 0.6326 -0.3651
vn 0.7786 0.4696 -0.4162
vn 0.8443 0.2890 -0.4513
vn 0.8777 0.0976 -0.4691
vn 0.0869 0.9951 -0.0464
vn 0.2571 0.9565 -0.1374
vn 0.4173 0.8810 -0.2230
vn 0.5611 0.7715 -0.2999
vn 0.0942 0.9951 -0.0286
vn 0.2790 0.9565 -0.0846
vn 0.4528 0.8810 -0.1374
vn 0.6088 0.7715 -0.1847
vn 0.7412 0.6326 -0.2248
vn 0.8448 0.4696 -0.2563
vn 0.9161 0.2890 -0.2779
vn 0.9524 0.0976 -0.2889
vn 0.7708 0.6326 -0.0759
vn 0.8786 0.4696 -0.0865
vn 0.9527 0.2890 -0.0938
vn 0.9904 0.0976 -0.0975
vn 0.0980 0.9951 -0.0097
vn 0.2902 0.9565 -0.0286
vn 0.4709 0.8810 -0.0464
vn 0.6332 0.7715 -0.0624
vn 0.2902 0.9565 0.0286
vn 0.4709 0.8810 0.0464
vn 0.6332 0.7715 0.0624
vn 0.7708 0.6326 0.0759
vn 0.8786 0.4696 0.0865
vn 0.9527 0.2890 0.0938
vn 0.9904 0.0976 0.0975
vn 0.0980 0.9951 0.0097
vn 0.8448 0.4696 0.2563
vn 0.9161 0.2890 0.2779
vn 0.9524 0.0976 0.2889
vn 0.0942 0.9951 0.0286
vn 0.2790 0.9565 0.0846
vn 0.4528 0.8810 0.1374
vn 0.6088 0.7715 0.1847
vn 0.7412 0.6326 0.2248
vn 0.2571 0.9565 0.1374
vn 0.4173 0.8810 0.2230
vn 0.5611 0.7715 0.2999
vn 0.6831 0.6326 0.3651
vn 0.7786 0.4696 0.4162
vn 0.8443 0.2890 0.4513
vn 0.8777 0.0976 0.4691
vn 0.0869 0.9951 0.0464
vn 0.6825 0.4696 0.5601
vn 0.7400 0.2890 0.6073
vn 0.7693 0.0976 0.6314
vn 0.0761 0.9951 0.0625
vn 0.2254 0.9565 0.1850
vn 0.3658 0.8810 0.3002
vn 0.4918 0.7715 0.4036
vn 0.5987 0.6326 0.4913
vn 0.3002 0.8810 0.3658
vn 0.4036 0.7715 0.4918
vn 0.4913 0.6326 0.5987
vn 0.5601 0.4696 0.6825
vn 0.6073 0.2890 0.7400
vn 0.6314 0.0976 0.7693
vn 0.0625 0.9951 0.0761
vn 0.1850 0.9565 0.2254
vn 0.4513 0.2890 0.8443
vn 0.4691 0.0976 0.8777
vn 0.0464 0.9951 0.0869
vn 0.1374 0.9565 0.2571
vn 0.2230 0.8810 0.4173
vn 0.2999 0.7715 0.5611
vn 0.3651 0.6326 0.6831
vn 0.4162 0.4696 0.7786
vn 0.1847 0.7715 0.6088
vn 0.2248 0.6326 0.7412
vn 0.2563 0.4696 0.8448
vn 0.2779 0.2890 0.9161
vn 0.2889 0.0976 0.9524
vn 0.0286 0.9951 0.0942
vn 0.0846 0.9565 0.2790
vn 0.1374 0.8810 0.4528
vn 0.0975 0.0976 0.9904
vn 0.0097 0.9951 0.0980
vn 0.0286 0.9565 0.2902
vn 0.0464 0.8810 0.4709
vn 0.0624 0.7715 0.6332
vn 0.0759 0.6326 0.7708
vn 0.0865 0.4696 0.8786
vn 0.0938 0.2890 0.9527
vn -0.0624 0.7715 0.6332
vn -0.0759 0.6326 0.7708
vn -0.0865 0.4696 0.8786
vn -0.0938 0.2890 0.9527
vn -0.0975 0.0976 0.9904
vn -0.0097 0.9951 0.0980
vn -0.0286 0.9565 0.2902
vn -0.0464 0.8810 0.4709
vn -0.2889 0.0976 0.9524
vn -0.0286 0.9951 0.0942
vn -0.0846 0.9565 0.2790
vn -0.1374 0.8810 0.4528
vn -0.1847 0.7715 0.6088
vn -0.2248 0.6326 0.7412
vn -0.2563 0.4696 0.8448
vn -0.2779 0.2890 0.9161
vn -0.3651 0.6326 0.6831
vn -0.4162 0.4696 0.7786
vn -0.4513 0.2890 0.8443
vn -0.4691 0.0976 0.8777
vn -0.0464 0.9951 0.0869
vn -0.1374 0.9565 0.2571
vn -0.2230 0.8810 0.4173
vn -0.2999 0.7715 0.5611
vn -0.0625 0.9951 0.0761
vn -0.1850 0.9565 0.2254
vn -0.3002 0.8810 0.3658
vn -0.4036 0.7715 0.4918
vn -0.4913 0.6326 0.5987
vn -0.5601 0.4696 0.6825
vn -0.6073 0.2890 0.7400
vn -0.6314 0.0976 0.7693
vn -0.5987 0.6326 0.4913
vn -0.6825 0.4696 0.5601
vn -0.7400 0.2890 0.6073
vn -0.7693 0.0976 0.6314
vn -0.0761 0.9951 0.0625
vn -0.2254 0.9565 0.1850
vn -0.3658 0.8810 0.3002
vn -0.4918 0.7715 0.4036
vn -0.2571 0.9565 0.1374
vn -0.4173 0.8810 0.2230
vn -0.5611 0.7715 0.2999
vn -0.6831 0.6326 0.3651
vn -0.7786 0.4696 0.4162
vn -0.8443 0.2890 0.4513
vn -0.8777 0.0976 0.4691
vn -0.0869 0.9951 0.0464
vn -0.8448 0.4696 0.2563
vn -0.9161 0.2890 0.2779
vn -0.9524 0.0976 0.2889
vn -0.0942 0.9951 0.0286
vn -0.2790 0.9565 0.0846
vn -0.4528 0.8810 0.1374
vn -0.6088 0.7715 0.1847
vn -0.7412 0.6326 0.2248
vn -0.4709 0.8810 0.0464
vn -0.6332 0.7715 0.0624
vn -0.7708 0.6326 0.0759
vn -0.8786 0.4696 0.0865
vn -0.9527 0.2890 0.0938
vn -0.9904 0.0976 0.0975
vn -0.0980 0.9951 0.0097
vn -0.2902 0.9565 0.0286
vn -0.9527 0.2890 -0.0938
vn -0.9904 0.0976 -0.0976
vn -0.0980 0.9951 -0.0097
vn -0.2902 0.9565 -0.0286
vn -0.4709 0.8810 -0.0464
vn -0.6332 0.7715 -0.0624
vn -0.7708 0.6326 -0.0759
vn -0.8786 0.4696 -0.0865
vn -0.4528 0.8810 -0.1374
vn -0.6088 0.7715 -0.1847
vn -0.7412 0.6326 -0.2248
vn -0.8448 0.4696 -0.2563
vn -0.9161 0.2890 -0.2779
vn -0.9524 0.0976 -0.2889
vn -0.0942 0.9951 -0.0286
vn -0.2790 0.9565 -0.0846
vn -0.8443 0.2890 -0.4513
vn -0.8777 0.0976 -0.4691
vn -0.0869 0.9951 -0.0464
vn -0.2571 0.9565 -0.1374
vn -0.4173 0.8810 -0.2230
vn -0.5611 0.7715 -0.2999
vn -0.6831 0.6326 -0.3651
vn -0.7786 0.4696 -0.4162
vn -0.4918 0.7715 -0.4036
vn -0.5987 0.6326 -0.4913
vn -0.6825 0.4696 -0.5601
vn -0.7400 0.2890 -0.6073
vn -0.7693 0.0976 -0.6314
vn -0.0761 0.9951 -0.0625
vn -0.2254 0.9565 -0.1850
vn -0.3658 0.8810 -0.3002
vn -0.6314 0.0976 -0.7693
vn -0.0625 0.9951 -0.0761
vn -0.1850 0.9565 -0.2254
vn -0.3002 0.8810 -0.3658
vn -0.4036 0.7715 -0.4918
vn -0.4913 0.6326 -0.5987
vn -0.5601 0.4696 -0.6825
vn -0.6073 0.2890 -0.7400
vn -0.2999 0.7715 -0.5611
vn -0.3651 0.6326 -0.6831
vn -0.4162 0.4696 -0.7786
vn -0.4513 0.2890 -0.8443
vn -0.4691 0.0976 -0.8777
vn -0.0464 0.9951 -0.0869
vn -0.1374 0.9565 -0.2571
vn -0.2230 0.8810 -0.4173
vn -0.2889 0.0976 -0.9524
vn -0.0286 0.9951 -0.0942
vn -0.0846 0.9565 -0.2790
vn -0.1374 0.8810 -0.4528
vn -0.1847 0.7715 -0.6088
vn -0.2248 0.6326 -0.7412
vn -0.2563 0.4696 -0.8448
vn -0.2779 0.2890 -0.9161
vn -0.0759 0.6326 -0.7708
vn -0.0865 0.4696 -0.8786
vn -0.0938 0.2890 -0.9527
vn -0.0976 0.0976 -0.9904
vn -0.0097 0.9951 -0.0980
vn 0.0000 -1.0000 0.0000
vn -0.0286 0.9565 -0.2902
vn -0.0464 0.8810 -0.4709
vn -0.0624 0.7715 -0.6332
usemtl None
s off
f 5//1 4//1 12//1 13//1
f 6//2 5//2 13//2 14//2
f 7//3 6//3 14//3 15//3
f 8//4 7//4 15//4 16//4
f 1//5 161//5 9//5
f 2//6 1//6 9//6 10//6
f 3//7 2//7 10//7 11//7
f 4//8 3//8 11//8 12//8
f 11//9 10//9 18//9 19//9
f 12//10 11//10 19//10 20//10
f 13//11 12//11 20//11 21//11
f 14//12 13//12 21//12 22//12
f 15//13 14//13 22//13 23//13
f 16//14 15//14 23//14 24//14
f 9//15 161//15 17//15
f 10//16 9//16 17//16 18//16
f 23//17 22//17 30//17 31//17
f 24//18 23//18 31//18 32//18
f 17//19 161//19 25//19
f 18//20 17//20 25//20 26//20
f 19//21 18//21 26//21 27//21
f 20//22 19//22 27//22 28//22
f 21//23 20//23 28//23 29//23
f 22//24 21//24 29//24 30//24
f 28//25 27//25 35//25 36//25
f 29//26 28//26 36//26 37//26
f 30//27 29//27 37//27 38//27
f 31//28 30//28 38//28 39//28
f 32//29 31//29 39//29 40//29
f 25//30 161//30 33//30
f 26//31 25//31 33//31 34//31
f 27//32 26//32 34//32 35//32
f 40//33 39//33 47//33 48//33
f 33//34 161//34 41//34
f 34//35 33//35 41//35 42//35
f 35//36 34//36 42//36 43//36
f 36//37 35//37 43//37 44//37
f 37//38 36//38 44//38 45//38
f 38//39 37//39 45//39 46//39
f 39//40 38//40 46//40 47//40
f 45//41 44//41 52//41 53//41
f 46//42 45//42 53//42 54//42
f 47//43 46//43 54//43 55//43
f 48//44 47//44 55//44 56//44
f 41//45 161//45 49//45
f 42//46 41//46 49//46 50//46
f 43//47 42//47 50//47 51//47
f 44//48 43//48 51//48 52//48
f 49//49 161//49 57//49
f 50//50 49//50 57//50 58//50
f 51//51 50//51 58//51 59//51
f 52//52 51//52 59//52 60//52
f 53//53 52//53 60//53 61//53
f 54//54 53//54 61//54 62//54
f 55//55 54//55 62//55 63//55
f 56//56 55//56 63//56 64//56
f 61//57 60//57 68//57 69//57
f 62//58 61//58 69//58 70//58
f 63//59 62//59 70//59 71//59
f 64//60 63//60 71//60 72//60
f 57//61 161//61 65//61
f 58//62 57//62 65//62 66//62
f 59//63 58//63 66//63 67//63
f 60//64 59//64 67//64 68//64
f 66//65 65//65 73//65 74//65
f 67//66 66//66 74//66 75//66
f 68//67 67//67 75//67 76//67
f 69//68 68//68 76//68 77//68
f 70//69 69//69 77//69 78//69
f 71//70 70//70 78//70 79//70
f 72//71 71//71 79//71 80//71
f 65//72 161//72 73//72
f 78//73 77//73 85//73 86//73
f 79//74 78//74 86//74 87//74
f 80//75 79//75 87//75 88//75
f 73//76 161//76 81//76
f 74//77 73//77 81//77 82//77
f 75//78 74//78 82//78 83//78
f 76//79 75//79 83//79 84//79
f 77//80 76//80 84//80 85//80
f 82//81 81//81 89//81 90//81
f 83//82 82//82 90//82 91//82
f 84//83 83//83 91//83 92//83
f 85//84 84//84 92//84 93//84
f 86//85 85//85 93//85 94//85
f 87//86 86//86 94//86 95//86
f 88//87 87//87 95//87 96//87
f 81//88 161//88 89//88
f 94//89 93//89 101//89 102//89
f 95//90 94//90 102//90 103//90
f 96//91 95//91 103//91 104//91
f 89//92 161//92 97//92
f 90//93 89//93 97//93 98//93
f 91//94 90//94 98//94 99//94
f 92//95 91//95 99//95 100//95
f 93//96 92//96 100//96 101//96
f 99//97 98//97 106//97 107//97
f 100//98 99//98 107//98 108//98
f 101//99 100//99 108//99 109//99
f 102//100 101//100 109//100 110//100
f 103//101 102//101 110//101 111//101
f 104//102 103//102 111//102 112//102
f 97//103 161//103 105//103
f 98//104 97//104 105//104 106//104
f 111//105 110//105 118//105 119//105
f 112//106 111//106 119//106 120//106
f 105//107 161//107 113//107
f 106//108 105//108 113//108 114//108
f 107//109 106//109 114//109 115//109
f 108//110 107//110 115//110 116//110
f 109//111 108//111 116//111 117//111
f 110//112 109//112 117//112 118//112
f 116//113 115//113 123//113 124//113
f 117//114 116//114 124//114 125//114
f 118//115 117//115 125//115 126//115
f 119//116 118//116 126//116 127//116
f 120//117 119//117 127//117 128//117
f 113//118 161//118 121//118
f 114//119 113//119 121//119 122//119
f 115//120 114//120 122//120 123//120
f 128//121 127//121 135//121 136//121
f 121//122 161//122 129//122
f 122//123 121//123 129//123 130//123
f 123//124 122//124 130//124 131//124
f 124//125 123//125 131//125 132//125
f 125//126 124//126 132//126 133//126
f 126//127 125//127 133//127 134//127
f 127//128 126//128 134//128 135//128
f 132//129 131//129 139//129 140//129
f 133//130 132//130 140//130 141//130
f 134//131 133//131 141//131 142//131
f 135//132 134//132 142//132 143//132
f 136//133 135//133 143//133 144//133
f 129//134 161//134 137//134
f 130//135 129//135 137//135 138//135
f 131//136 130//136 138//136 139//136
f 144//137 143//137 151//137 152//137
f 137//138 161//138 145//138
f 138//139 137//139 145//139 146//139
f 139//140 138//140 146//140 147//140
f 140//141 139//141 147//141 148//141
f 141//142 140//142 148//142 149//142
f 142//143 141//143 149//143 150//143
f 143//144 142//144 150//144 151//144
f 149//145 148//145 156//145 157//145
f 150//146 149//146 157//146 158//146
f 151//147 150//147 158//147 159//147
f 152//148 151//148 159//148 160//148
f 145//149 161//149 153//149
f 146//150 145//150 153//150 154//150
f 147//151 146//151 154//151 155//151
f 148//152 147//152 155//152 156//152
f 153//153 161//153 162//153
f 154//154 153//154 162//154 163//154
f 155//155 154//155 163//155 164//155
f 156//156 155//156 164//156 165//156
f 157//157 156//157 165//157 166//157
f 158//158 157//158 166//158 167//158
f 159//159 158//159 167//159 168//159
f 160//160 159//160 168//160 169//160
f 166//161 165//161 173//161 174//161
f 167//162 166//162 174//162 175//162
f 168//163 167//163 175//163 176//163
f 169//164 168//164 176//164 177//164
f 162//165 161//165 170//165
f 163//166 162//166 170//166 171//166
f 164//167 163//167 171//167 172//167
f 165//168 164//168 172//168 173//168
f 171//169 170//169 178//169 179//169
f 172//170 171//170 179//170 180//170
f 173//171 172//171 180//171 181//171
f 174//172 173//172 181//172 182//172
f 175//173 174//173 182//173 183//173
f 176//174 175//174 183//174 184//174
f 177//175 176//175 184//175 185//175
f 170//176 161//176 178//176
f 183//177 182//177 190//177 191//177
f 184//178 183//178 191//178 192//178
f 185//179 184//179 192//179 193//179
f 178//180 161//180 186//180
f 179//181 178//181 186//181 187//181
f 180//182 179//182 187//182 188//182
f 181//183 180//183 188//183 189//183
f 182//184 181//184 189//184 190//184
f 188//185 187//185 195//185 196//185
f 189//186 188//186 196//186 197//186
f 190//187 189//187 197//187 198//187
f 191//188 190//188 198//188 199//188
f 192//189 191//189 199//189 200//189
f 193//190 192//190 200//190 201//190
f 186//191 161//191 194//191
f 187//192 186//192 194//192 195//192
f 200//193 199//193 207//193 208//193
f 201//194 200//194 208//194 209//194
f 194//195 161//195 202//195
f 195//196 194//196 202//196 203//196
f 196//197 195//197 203//197 204//197
f 197//198 196//198 204//198 205//198
f 198//199 197//199 205//199 206//199
f 199//200 198//200 206//200 207//200
f 204//201 203//201 211//201 212//201
f 205//202 204//202 212//202 213//202
f 206//203 205//203 213//203 214//203
f 207//204 206//204 214//204 215//204
f 208//205 207//205 215//205 216//205
f 209//206 208//206 216//206 217//206
f 202//207 161//207 210//207
f 203//208 202//208 210//208 211//208
f 216//209 215//209 223//209 224//209
f 217//210 216//210 224//210 225//210
f 210//211 161//211 218//211
f 211//212 210//212 218//212 219//212
f 212//213 211//213 219//213 220//213
f 213//214 212//214 220//214 221//214
f 214//215 213//215 221//215 222//215
f 215//216 214//216 222//216 223//216
f 221//217 220//217 228//217 229//217
f 222//218 221//218 229//218 230//218
f 223//219 222//219 230//219 231//219
f 224//220 223//220 231//220 232//220
f 225//221 224//221 232//221 233//221
f 218//222 161//222 226//222
f 219//223 218//223 226//223 227//223
f 220//224 219//224 227//224 228//224
f 233//225 232//225 240//225 241//225
f 226//226 161//226 234//226
f 227//227 226//227 234//227 235//227
f 228//228 227//228 235//228 236//228
f 229//229 228//229 236//229 237//229
f 230//230 229//230 237//230 238//230
f 231//231 230//231 238//231 239//231
f 232//232 231//232 239//232 240//232
f 237//233 236//233 244//233 245//233
f 238//234 237//234 245//234 246//234
f 239//235 238//235 246//235 247//235
f 240//236 239//236 247//236 248//236
f 241//237 240//237 248//237 249//237
f 234//238 161//238 242//238
f 235//239 234//239 242//239 243//239
f 236//240 235//240 243//240 244//240
f 249//241 248//241 256//241 257//241
f 242//242 161//242 250//242
f 243//243 242//243 250//243 251//243
f 244//244 243//244 251//244 252//244
f 245//245 244//245 252//245 253//245
f 246//246 245//246 253//246 254//246
f 247//247 246//247 254//247 255//247
f 248//248 247//248 255//248 256//248
f 254//249 253//249 4//249 5//249
f 255//250 254//250 5//250 6//250
f 256//251 255//251 6//251 7//251
f 257//252 256//252 7//252 8//252
f 250//253 161//253 1//253
f 8//254 16//254 24//254 32//254 40//254 48//254 56//254 64//254 72//254 80//254 88//254 96//254 104//254 112//254 120//254 128//254 136//254 144//254 152//254 160//254 169//254 177//254 185//254 193//254 201//254 209//254 217//254 225//254 233//254 241//254 249//254 257//254
f 251//255 250//255 1//255 2//255
f 252//256 251//256 2//256 3//256
f 253//257 252//257 3//257 4//257
